<svg width="128" height="128" viewBox="0 0 128 128" fill="none" xmlns="http://www.w3.org/2000/svg">
<path fill-rule="evenodd" clip-rule="evenodd" d="M27.125 13.875C27.125 13.875 27.8114 14.0318 28.25 14.25C28.2826 14.2662 28.3145 14.2819 28.3457 14.2972L28.3468 14.2978L28.347 14.2978C28.7338 14.4878 29 14.6186 29 15C29 15.4125 28.6413 15.6103 28.25 15.75C27.8587 15.8897 27.125 16.125 27.125 16.125C27.125 16.125 26.8957 16.8294 26.75 17.25C26.6043 17.6706 26.4125 18 26 18C25.5875 18 25.4011 17.6135 25.25 17.25C25.0989 16.8865 24.875 16.125 24.875 16.125C24.875 16.125 24.1205 15.925 23.75 15.75L23.7082 15.7303C23.3515 15.5624 23 15.397 23 15C23 14.5875 23.395 14.3802 23.75 14.25C24.105 14.1198 24.875 13.875 24.875 13.875C24.875 13.875 25.1373 13.131 25.25 12.75C25.3627 12.369 25.5875 12 26 12C26.4125 12 26.6532 12.3825 26.75 12.75C26.8468 13.1175 27.125 13.875 27.125 13.875ZM18.75 23.75C18.019 23.3864 16.875 23.125 16.875 23.125C16.875 23.125 16.4113 21.8625 16.25 21.25C16.0887 20.6375 15.6875 20 15 20C14.3125 20 13.9378 20.615 13.75 21.25C13.5622 21.885 13.125 23.125 13.125 23.125C13.125 23.125 11.8417 23.5331 11.25 23.75C10.6583 23.9669 10 24.3125 10 25C10 25.6616 10.5859 25.9374 11.1803 26.2171L11.25 26.25C11.8674 26.5417 13.125 26.875 13.125 26.875C13.125 26.875 13.4981 28.1441 13.75 28.75C14.0019 29.3559 14.3125 30 15 30C15.6875 30 16.0072 29.4509 16.25 28.75C16.4928 28.0491 16.875 26.875 16.875 26.875C16.875 26.875 18.0978 26.4828 18.75 26.25C19.4022 26.0172 20 25.6875 20 25C20 24.3643 19.5563 24.1464 18.9116 23.8297C18.859 23.8039 18.8051 23.7774 18.75 23.75ZM112.5 47.5C111.395 47.5 110.5 48.3954 110.5 49.5C110.5 50.6046 111.395 51.5 112.5 51.5C113.605 51.5 114.5 50.6046 114.5 49.5C114.5 48.3954 113.605 47.5 112.5 47.5ZM107.5 49.5C107.5 46.7386 109.739 44.5 112.5 44.5C115.261 44.5 117.5 46.7386 117.5 49.5C117.5 52.2614 115.261 54.5 112.5 54.5C109.739 54.5 107.5 52.2614 107.5 49.5ZM117.5 37.5C117.5 35.8431 118.843 34.5 120.5 34.5C122.157 34.5 123.5 35.8431 123.5 37.5C123.5 39.1569 122.157 40.5 120.5 40.5C118.843 40.5 117.5 39.1569 117.5 37.5ZM115 26C113.895 26 113 26.8954 113 28C113 29.1046 113.895 30 115 30C116.105 30 117 29.1046 117 28C117 26.8954 116.105 26 115 26ZM29.7609 111.818C30.1514 111.428 30.7846 111.428 31.1751 111.818L33.159 113.802C33.5495 114.193 33.5495 114.826 33.159 115.216L31.1751 117.2C30.7846 117.591 30.1514 117.591 29.7609 117.2L27.777 115.216C27.3865 114.826 27.3865 114.193 27.777 113.802L29.7609 111.818ZM22.2102 118.934C22.0149 118.739 21.6984 118.739 21.5031 118.934L19.9448 120.492C19.7495 120.687 19.7495 121.004 19.9448 121.199L21.5031 122.758C21.6984 122.953 22.0149 122.953 22.2102 122.758L23.7685 121.199C23.9638 121.004 23.9638 120.687 23.7685 120.492L22.2102 118.934Z" fill="#E8E8E8"/>
<path opacity="0.807163" fill-rule="evenodd" clip-rule="evenodd" d="M111.941 69.5385C118.692 75.4056 119.424 85.6346 113.552 92.3886L108.594 98.0904C89.6385 119.892 56.4709 122.179 34.6465 103.211C12.8214 84.2424 10.471 51.0845 29.4272 29.282L34.3847 23.5802C40.2563 16.8269 50.4879 16.1278 57.2374 21.994C63.988 27.8611 64.72 38.0901 58.8478 44.8441L53.7096 50.7538C49.8164 55.2316 47.8985 60.1158 48.0223 64.7384C48.1435 69.264 50.237 74.2276 55.7088 78.9833C60.7114 83.3312 65.9386 84.7941 70.6616 84.3357C75.4426 83.8718 80.162 81.3916 83.9505 77.0343L89.0887 71.1246C94.9603 64.3714 105.192 63.6723 111.941 69.5385Z" fill="#F5F5F5"/>
<path d="M64.069 80.0746C58.1181 80.0735 52.6519 83.3535 49.855 88.6038C58.021 95.6239 70.094 95.6239 78.26 88.6038C75.467 83.3608 70.0116 80.0819 64.069 80.0746Z" fill="#30CEBB"/>
<path fill-rule="evenodd" clip-rule="evenodd" d="M84.769 43.2908H93.969C95.2123 43.3281 96.2006 44.3466 96.2 45.5898V54.7857C96.2 56.0554 95.1703 57.0847 93.9 57.0847C92.6298 57.0847 91.6 56.0554 91.6 54.7857V51.1304L84.079 58.648C90.8131 68.7202 89.0355 82.2214 79.9237 90.2092C70.8118 98.1969 57.1883 98.1969 48.0764 90.2092C38.9645 82.2214 37.187 68.7202 43.921 58.648L36.4 51.1304V54.7857C36.4 56.0554 35.3703 57.0847 34.1 57.0847C32.8298 57.0847 31.8 56.0554 31.8 54.7857V45.5898C31.8 44.3201 32.8298 43.2908 34.1 43.2908H43.3C44.5703 43.2908 45.6 44.3201 45.6 45.5898C45.6 46.8595 44.5703 47.8888 43.3 47.8888H39.712L46.819 55.0616C50.853 50.963 56.2215 48.443 61.953 47.9578V39.5894L58.986 42.5781C58.5542 43.0134 57.9663 43.2582 57.353 43.2582C56.7398 43.2582 56.1519 43.0134 55.72 42.5781C55.2846 42.1465 55.0397 41.5588 55.0397 40.9458C55.0397 40.3328 55.2846 39.7452 55.72 39.3136L62.62 32.4166C62.8082 32.2246 63.0358 32.0756 63.287 31.9798C64.1436 31.6198 65.1327 31.8103 65.794 32.4626L72.694 39.3595C73.5959 40.261 73.5959 41.7226 72.694 42.6241C71.7922 43.5256 70.3299 43.5256 69.428 42.6241L66.461 39.6354V48.0037C72.089 48.5401 77.3488 51.0386 81.319 55.0616L88.357 47.8888H84.769C83.4988 47.8888 82.469 46.8595 82.469 45.5898C82.469 44.3201 83.4988 43.2908 84.769 43.2908ZM64.0691 75.4766C59.1454 75.4816 55.0906 71.611 54.8691 66.6945V66.0738C54.8569 65.9438 54.8569 65.8129 54.8691 65.6829C54.9199 60.6042 59.08 56.5282 64.1611 56.579C69.2421 56.6297 73.3199 60.7881 73.2691 65.8669V66.4876C73.2813 66.6176 73.2813 66.7484 73.2691 66.8784C72.9534 71.7224 68.9254 75.4869 64.0691 75.4766ZM59.4691 66.2807C59.4691 68.8201 61.5285 70.8787 64.069 70.8787C66.6096 70.8787 68.669 68.8201 68.669 66.2807C68.669 63.7413 66.6096 61.6827 64.069 61.6827C61.564 61.6822 59.5192 63.6853 59.4691 66.1887V66.2807ZM52.9141 88.121C55.5114 84.5564 59.6573 82.448 64.069 82.448C68.4808 82.448 72.6267 84.5564 75.224 88.121C68.5279 92.8124 59.6102 92.8124 52.9141 88.121ZM64.069 77.8882C69.7804 77.8882 75.1679 80.5392 78.651 85.0634C85.6521 77.227 85.2013 65.2598 77.6304 57.9719C70.0595 50.684 58.0786 50.684 50.5077 57.9719C42.9368 65.2598 42.486 77.227 49.487 85.0634C52.9702 80.5392 58.3577 77.8882 64.069 77.8882Z" fill="#005151"/>
</svg>
