<svg width="24" height="24" viewBox="0 0 24 24" fill="none" xmlns="http://www.w3.org/2000/svg">
<g style="mix-blend-mode:multiply">
<path d="M7 12.0035C7 11.451 7.44772 11.0032 8 11.0032C8.55228 11.0032 9 11.451 9 12.0035C9 12.556 8.55228 13.0039 8 13.0039C7.44772 13.0039 7 12.556 7 12.0035Z" fill="black"/>
<path d="M11 12.0035C11 11.451 11.4477 11.0032 12 11.0032C12.5523 11.0032 13 11.451 13 12.0035C13 12.556 12.5523 13.0039 12 13.0039C11.4477 13.0039 11 12.556 11 12.0035Z" fill="black"/>
<path d="M16 11.0032C15.4477 11.0032 15 11.451 15 12.0035C15 12.556 15.4477 13.0039 16 13.0039C16.5523 13.0039 17 12.556 17 12.0035C17 11.451 16.5523 11.0032 16 11.0032Z" fill="black"/>
<path fill-rule="evenodd" clip-rule="evenodd" d="M3.85697 17.8112C2.68819 16.1738 2 14.1679 2 12.0035C2 6.47873 6.47715 2 12 2C17.5228 2 22 6.47873 22 12.0035C22 17.5283 17.5228 22.007 12 22.007H11C10.9382 22.007 10.8687 22.0107 10.81 22C10.4037 21.9891 10.0706 21.9651 9.75625 21.9516C8.79177 21.9103 8.08679 21.88 6.58193 22.0037C5.57844 22.0861 4.75599 22.3961 4.1826 22.6393C4.1104 22.67 4.04249 22.6994 3.97696 22.7278L3.9573 22.7364C3.89971 22.7614 3.84203 22.7864 3.78875 22.809C3.68585 22.8528 3.53794 22.9147 3.39837 22.9526C3.33484 22.9699 3.19296 23.0056 3.02125 22.9993C2.85235 22.993 2.43857 22.9312 2.17584 22.5226C1.94624 22.1654 2.01503 21.8105 2.03895 21.7058C2.06891 21.5747 2.11782 21.4661 2.15054 21.3998L3.85697 17.8112ZM4 12.0035C4 7.58369 7.58172 4.0007 12 4.0007C16.4183 4.0007 20 7.58369 20 12.0035C20 16.4234 16.4183 20.0063 12 20.0063H11.5816C11.5587 20.0045 11.5356 20.0034 11.5122 20.0031C10.8986 19.9957 10.4028 19.9748 9.94053 19.9554C8.91111 19.9121 8.04758 19.8758 6.41824 20.0097C5.86156 20.0554 5.35219 20.1542 4.90078 20.2736L5.90312 18.1657C5.97535 18.0138 6.00594 17.8529 5.99948 17.6957C6.0072 17.4638 5.93474 17.2281 5.77737 17.0336C4.66536 15.6589 4 13.9103 4 12.0035Z" fill="black"/>
</g>
</svg>
