<svg width="128" height="128" viewBox="0 0 128 128" fill="none" xmlns="http://www.w3.org/2000/svg">
<path fill-rule="evenodd" clip-rule="evenodd" d="M27.125 13.875C27.125 13.875 27.8114 14.0318 28.25 14.25C28.2826 14.2662 28.3145 14.2819 28.3457 14.2972L28.3468 14.2978L28.347 14.2978C28.7338 14.4878 29 14.6186 29 15C29 15.4125 28.6413 15.6103 28.25 15.75C27.8587 15.8897 27.125 16.125 27.125 16.125C27.125 16.125 26.8957 16.8294 26.75 17.25C26.6043 17.6706 26.4125 18 26 18C25.5875 18 25.4011 17.6135 25.25 17.25C25.0989 16.8865 24.875 16.125 24.875 16.125C24.875 16.125 24.1205 15.925 23.75 15.75L23.7082 15.7303C23.3515 15.5624 23 15.397 23 15C23 14.5875 23.395 14.3802 23.75 14.25C24.105 14.1198 24.875 13.875 24.875 13.875C24.875 13.875 25.1373 13.131 25.25 12.75C25.3627 12.369 25.5875 12 26 12C26.4125 12 26.6532 12.3825 26.75 12.75C26.8468 13.1175 27.125 13.875 27.125 13.875ZM18.75 23.75C18.019 23.3864 16.875 23.125 16.875 23.125C16.875 23.125 16.4113 21.8625 16.25 21.25C16.0887 20.6375 15.6875 20 15 20C14.3125 20 13.9378 20.615 13.75 21.25C13.5622 21.885 13.125 23.125 13.125 23.125C13.125 23.125 11.8417 23.5331 11.25 23.75C10.6583 23.9669 10 24.3125 10 25C10 25.6616 10.5859 25.9374 11.1803 26.2171L11.25 26.25C11.8674 26.5417 13.125 26.875 13.125 26.875C13.125 26.875 13.4981 28.1441 13.75 28.75C14.0019 29.3559 14.3125 30 15 30C15.6875 30 16.0072 29.4509 16.25 28.75C16.4928 28.0491 16.875 26.875 16.875 26.875C16.875 26.875 18.0978 26.4828 18.75 26.25C19.4022 26.0172 20 25.6875 20 25C20 24.3643 19.5563 24.1464 18.9116 23.8297C18.859 23.8039 18.8051 23.7774 18.75 23.75ZM112.5 47.5C111.395 47.5 110.5 48.3954 110.5 49.5C110.5 50.6046 111.395 51.5 112.5 51.5C113.605 51.5 114.5 50.6046 114.5 49.5C114.5 48.3954 113.605 47.5 112.5 47.5ZM107.5 49.5C107.5 46.7386 109.739 44.5 112.5 44.5C115.261 44.5 117.5 46.7386 117.5 49.5C117.5 52.2614 115.261 54.5 112.5 54.5C109.739 54.5 107.5 52.2614 107.5 49.5ZM117.5 37.5C117.5 35.8431 118.843 34.5 120.5 34.5C122.157 34.5 123.5 35.8431 123.5 37.5C123.5 39.1569 122.157 40.5 120.5 40.5C118.843 40.5 117.5 39.1569 117.5 37.5ZM115 26C113.895 26 113 26.8954 113 28C113 29.1046 113.895 30 115 30C116.105 30 117 29.1046 117 28C117 26.8954 116.105 26 115 26ZM29.7609 111.818C30.1514 111.428 30.7846 111.428 31.1751 111.818L33.159 113.802C33.5495 114.193 33.5495 114.826 33.159 115.216L31.1751 117.2C30.7846 117.591 30.1514 117.591 29.7609 117.2L27.777 115.216C27.3865 114.826 27.3865 114.193 27.777 113.802L29.7609 111.818ZM22.2102 118.934C22.0149 118.739 21.6984 118.739 21.5031 118.934L19.9448 120.492C19.7495 120.687 19.7495 121.004 19.9448 121.199L21.5031 122.758C21.6984 122.953 22.0149 122.953 22.2102 122.758L23.7685 121.199C23.9638 121.004 23.9638 120.687 23.7685 120.492L22.2102 118.934Z" fill="#E8E8E8"/>
<path opacity="0.807163" fill-rule="evenodd" clip-rule="evenodd" d="M111.941 69.5385C118.692 75.4056 119.424 85.6346 113.552 92.3886L108.594 98.0904C89.6385 119.892 56.4709 122.179 34.6465 103.211C12.8214 84.2424 10.471 51.0845 29.4272 29.282L34.3847 23.5802C40.2563 16.8269 50.4879 16.1278 57.2374 21.994C63.988 27.8611 64.72 38.0901 58.8478 44.8441L53.7096 50.7538C49.8164 55.2316 47.8985 60.1158 48.0223 64.7384C48.1435 69.264 50.237 74.2276 55.7088 78.9833C60.7114 83.3312 65.9386 84.7941 70.6616 84.3357C75.4426 83.8718 80.162 81.3916 83.9505 77.0343L89.0887 71.1246C94.9603 64.3714 105.192 63.6723 111.941 69.5385Z" fill="#F5F5F5"/>
<path fill-rule="evenodd" clip-rule="evenodd" d="M45.6001 34.1H82.4001V41H45.6001V34.1ZM93.9001 57.1H93.6931H82.4001V93.9H93.9001V89.3H96.2001V80.1H93.9001V57.1ZM45.6001 57.123H34.1001V93.923H45.6001V57.123ZM52.5001 64H57.1001V68.6H52.5001V64ZM57.1001 73.2H52.5001V77.8H57.1001V73.2ZM70.8771 73.2H75.4771V77.8H70.8771V73.2ZM57.1001 45.6H52.5001V50.2H57.1001V45.6ZM70.8771 45.6H75.4771V50.2H70.8771V45.6ZM66.3001 45.6H61.7001V50.2H66.3001V45.6ZM61.7001 54.8H66.3001V59.4H61.7001V54.8ZM66.3001 64H61.7001V68.6H66.3001V64ZM61.7001 73.2H66.3001V77.8H61.7001V73.2ZM57.1001 54.8H52.5001V59.4H57.1001V54.8ZM70.9001 64H75.5001V68.6H70.9001V64ZM75.5001 54.8H70.9001V59.4H75.5001V54.8Z" fill="#30CEBB"/>
<path fill-rule="evenodd" clip-rule="evenodd" d="M93.9 82.4C95.1703 82.4 96.2 81.3702 96.2 80.1V57.1C96.2 55.8297 95.1703 54.8 93.9 54.8H84.7V34.1C84.7 32.8297 83.6703 31.8 82.4 31.8H45.6C44.3298 31.8 43.3 32.8297 43.3 34.1V54.8H34.1C32.8298 54.8 31.8 55.8297 31.8 57.1V93.9C31.8 95.1702 32.8298 96.2 34.1 96.2H93.9C95.1703 96.2 96.2 95.1702 96.2 93.9V89.3C96.2 88.0297 95.1703 87 93.9 87C92.6298 87 91.6 88.0297 91.6 89.3V91.6H84.7V59.4H91.6V80.1C91.6 81.3702 92.6298 82.4 93.9 82.4ZM47.9 91.6H59.4001V82.423H68.6231V91.6H73.2H80.1V36.4H47.9V91.6ZM43.3 59.4H36.4V91.6H43.3V59.4Z" fill="#005151"/>
</svg>
