<svg xmlns="http://www.w3.org/2000/svg" width="112" height="112" viewBox="0 0 112 112">
  <g fill="none" fill-rule="evenodd" class="employee---documents">
    <g class="employee---documents__documents">
      <g class="employee---documents__documents__group">
        <rect width="112" height="112" fill="#FFF" class="employee---documents__documents__group__rectangle"/>
        <path fill="#E8E8E8" d="M16.899 5.758s.677.147 1.11.352l.094.044h.001c.382.179.645.302.645.66 0 .386-.354.572-.74.703-.386.13-1.11.351-1.11.351s-.227.66-.37 1.055c-.144.395-.333.703-.74.703-.408 0-.591-.362-.74-.703-.15-.34-.37-1.055-.37-1.055s-.745-.187-1.11-.351l-.042-.019c-.352-.157-.699-.312-.699-.685 0-.387.39-.581.74-.703s1.11-.352 1.11-.352.26-.697.37-1.055c.112-.357.333-.703.74-.703.408 0 .645.359.74.703.096.345.37 1.055.37 1.055zm-8.265 9.26c-.721-.34-1.85-.586-1.85-.586s-.457-1.183-.617-1.758c-.159-.574-.555-1.172-1.233-1.172s-1.048.577-1.234 1.172c-.185.596-.616 1.758-.616 1.758s-1.267.383-1.85.587C.65 15.222 0 15.546 0 16.19c0 .62.578.879 1.165 1.141l.068.03c.61.274 1.85.587 1.85.587s.369 1.19.617 1.758c.249.568.556 1.172 1.234 1.172.678 0 .994-.514 1.233-1.172.24-.657.617-1.758.617-1.758s1.207-.368 1.85-.586c.644-.218 1.234-.528 1.234-1.172 0-.596-.438-.8-1.074-1.098a33.168 33.168 0 0 1-.16-.074zm92.511 22.272c-1.09 0-1.973.84-1.973 1.875 0 1.036.883 1.876 1.973 1.876s1.974-.84 1.974-1.876c0-1.035-.883-1.875-1.974-1.875zm-4.934 1.875c0-2.589 2.21-4.688 4.934-4.688 2.725 0 4.934 2.099 4.934 4.688 0 2.59-2.21 4.69-4.934 4.69s-4.934-2.1-4.934-4.69zm9.868-11.252c0-1.554 1.326-2.814 2.96-2.814 1.636 0 2.961 1.26 2.961 2.814 0 1.553-1.325 2.813-2.96 2.813s-2.96-1.26-2.96-2.813zm-2.467-10.785c-1.09 0-1.973.84-1.973 1.876s.883 1.875 1.973 1.875 1.974-.84 1.974-1.875c0-1.036-.883-1.876-1.974-1.876zM19.5 97.604a1.025 1.025 0 0 1 1.395 0l1.958 1.86a.905.905 0 0 1 0 1.326l-1.958 1.86a1.023 1.023 0 0 1-1.395 0l-1.958-1.86a.905.905 0 0 1 0-1.326l1.958-1.86zm-7.451 6.673a.512.512 0 0 0-.698 0l-1.538 1.46a.452.452 0 0 0 0 .664l1.538 1.462a.512.512 0 0 0 .698 0l1.538-1.462a.452.452 0 0 0 0-.663l-1.538-1.461z" class="employee---documents__documents__group__shape"/>
        <path fill="#F5F5F5" d="M100.471 58.395c6.69 5.624 7.415 15.431 1.596 21.906l-4.914 5.466C78.37 106.67 45.5 108.861 23.872 90.677 2.243 72.49-.086 40.703 18.7 19.8l4.912-5.467c5.82-6.474 15.959-7.144 22.647-1.52 6.69 5.624 7.416 15.431 1.596 21.906l-5.092 5.666c-3.858 4.293-5.758 8.975-5.636 13.407.12 4.339 2.195 9.097 7.617 13.656 4.958 4.169 10.138 5.571 14.819 5.132 4.738-.445 9.415-2.823 13.169-7l5.092-5.666c5.819-6.474 15.958-7.144 22.647-1.52z" class="employee---documents__documents__group__path" opacity=".807"/>
      </g>
      <g class="employee---documents__documents__documents-illustrative-icon" transform="translate(26 18)">
        <path fill="#FFF" fill-rule="nonzero" d="M7.627 75.46h44.746c3.37 0 6.102-2.758 6.102-6.16V20.518a6.19 6.19 0 0 0-1.788-4.356L43.991 3.344a6.073 6.073 0 0 0-4.315-1.804H7.627c-3.37 0-6.102 2.758-6.102 6.16v61.6c0 3.402 2.732 6.16 6.102 6.16z" class="employee---documents__documents__documents-illustrative-icon__path"/>
        <polygon fill="#30CEBB" fill-rule="nonzero" points="42.203 1.54 50.339 9.24 58.475 17.967 42.203 17.967" class="employee---documents__documents__documents-illustrative-icon__path"/>
        <path fill="#087C79" d="M5.593 0C2.504 0 0 2.528 0 5.647v33.88c0 .85.683 1.54 1.525 1.54.843 0 1.526-.69 1.526-1.54V5.647c0-1.418 1.138-2.567 2.542-2.567h34.925c.054 0 .107.002.16.005v12.828c0 1.985 1.594 3.594 3.56 3.594h12.706c.004.053.005.107.005.16v51.686c0 1.418-1.138 2.567-2.542 2.567H5.593c-1.404 0-2.542-1.15-2.542-2.567v-12.32c0-.85-.683-1.54-1.526-1.54-.842 0-1.525.69-1.525 1.54v12.32C0 74.472 2.504 77 5.593 77h48.814C57.496 77 60 74.472 60 71.353V19.668c0-1.498-.59-2.934-1.638-3.993L44.473 1.654A5.567 5.567 0 0 0 40.518 0H5.593zm49.199 16.427L43.729 5.257v10.656c0 .284.228.514.508.514h10.555z" class="employee---documents__documents__documents-illustrative-icon__shape"/>
        <rect width="21.356" height="13.347" x="9.661" y="13.86" fill="#30CEBB" fill-rule="nonzero" class="employee---documents__documents__documents-illustrative-icon__rectangle" rx="2"/>
        <path fill="#C9C9C9" d="M11.186 33.367c-.842 0-1.525.69-1.525 1.54 0 .85.683 1.54 1.525 1.54h37.628c.842 0 1.525-.69 1.525-1.54 0-.85-.683-1.54-1.525-1.54H11.186zm0 18.48c-.842 0-1.525.69-1.525 1.54 0 .85.683 1.54 1.525 1.54h37.628c.842 0 1.525-.69 1.525-1.54 0-.85-.683-1.54-1.525-1.54H11.186zm-1.525-7.7c0-.85.683-1.54 1.525-1.54h37.628c.842 0 1.525.69 1.525 1.54 0 .85-.683 1.54-1.525 1.54H11.186c-.842 0-1.525-.69-1.525-1.54zm1.525 16.94c-.842 0-1.525.69-1.525 1.54 0 .85.683 1.54 1.525 1.54h37.628c.842 0 1.525-.69 1.525-1.54 0-.85-.683-1.54-1.525-1.54H11.186z" class="employee---documents__documents__documents-illustrative-icon__shape"/>
      </g>
    </g>
  </g>
</svg>
