<svg width="24" height="24" viewBox="0 0 24 24" fill="none" xmlns="http://www.w3.org/2000/svg">
<path d="M10 15C9.44772 15 9 15.4477 9 16C9 16.5523 9.44771 17 10 17L13 17C13.5523 17 14 16.5523 14 16C14 15.4477 13.5523 15 13 15L10 15Z" fill="black"/>
<path d="M9 12C9 11.4477 9.44772 11 10 11L17 11C17.5523 11 18 11.4477 18 12C18 12.5523 17.5523 13 17 13L10 13C9.44771 13 9 12.5523 9 12Z" fill="black"/>
<path d="M10 7C9.44772 7 9 7.44772 9 8C9 8.55228 9.44771 9 10 9L17 9C17.5523 9 18 8.55229 18 8C18 7.44772 17.5523 7 17 7L10 7Z" fill="black"/>
<path fill-rule="evenodd" clip-rule="evenodd" d="M5 5C5 3.34315 6.34315 2 8 2H19C20.6569 2 22 3.34315 22 5V18C22 20.2091 20.2091 22 18 22H4C2.34315 22 1 20.6569 1 19V10C1 8.89543 1.89543 8 3 8H5V5ZM18 20H6.82929C6.93985 19.6872 7 19.3506 7 19V5C7 4.44772 7.44772 4 8 4H19C19.5523 4 20 4.44772 20 5V18C20 19.1046 19.1046 20 18 20ZM5 10H3V19C3 19.5523 3.44772 20 4 20C4.55228 20 5 19.5523 5 19V10Z" fill="black"/>
</svg>
