<svg width="112" height="112" fill="none" xmlns="http://www.w3.org/2000/svg"><path fill-rule="evenodd" clip-rule="evenodd" d="M23.734 12.14s.601.138.985.329l.085.042c.338.166.571.28.571.614 0 .36-.314.534-.656.656a43.43 43.43 0 01-.985.328s-.2.617-.328.985c-.127.368-.295.656-.656.656-.36 0-.524-.338-.656-.656-.133-.318-.328-.985-.328-.985s-.66-.175-.985-.328l-.036-.017c-.312-.147-.62-.292-.62-.639 0-.36.346-.542.656-.656.31-.114.985-.328.985-.328s.23-.651.328-.985c.098-.333.295-.656.656-.656.36 0 .572.335.656.656.085.322.328.985.328.985zm-7.328 8.641c-.64-.318-1.64-.547-1.64-.547s-.406-1.104-.547-1.64c-.141-.536-.492-1.094-1.094-1.094-.602 0-.93.538-1.094 1.094-.164.555-.547 1.64-.547 1.64s-1.123.357-1.64.547c-.518.19-1.094.492-1.094 1.094 0 .579.513.82 1.033 1.065l.06.029c.541.255 1.641.547 1.641.547s.327 1.11.547 1.64c.22.53.492 1.094 1.094 1.094.602 0 .881-.48 1.094-1.094.212-.613.547-1.64.547-1.64s1.07-.344 1.64-.547c.57-.204 1.094-.492 1.094-1.094 0-.556-.388-.747-.952-1.024a34.852 34.852 0 01-.142-.07zm82.031 20.782a1.75 1.75 0 100 3.5 1.75 1.75 0 000-3.5zm-4.374 1.75a4.375 4.375 0 118.75 0 4.375 4.375 0 01-8.75 0zm8.749-10.5a2.626 2.626 0 115.251 0 2.626 2.626 0 01-5.251 0zm-2.187-10.063a1.75 1.75 0 100 3.5 1.75 1.75 0 000-3.5zM25.952 97.93a1 1 0 011.415 0l1.559 1.558a1 1 0 010 1.415l-1.56 1.559a1 1 0 01-1.414 0l-1.559-1.559a1 1 0 010-1.415l1.56-1.559zm-6.474 6.181a.5.5 0 00-.707 0l-1.275 1.275a.501.501 0 000 .708l1.275 1.275a.5.5 0 00.707 0l1.275-1.275a.501.501 0 000-.708l-1.275-1.275z" fill="#E8E8E8"/><path opacity=".807" fill-rule="evenodd" clip-rule="evenodd" d="M97.949 60.846c5.907 5.134 6.547 14.084 1.409 19.994l-4.338 4.99c-16.586 19.076-45.608 21.077-64.704 4.48-19.097-16.598-21.154-45.611-4.567-64.688l4.338-4.99c5.137-5.908 14.09-6.52 19.996-1.387 5.907 5.133 6.547 14.084 1.409 19.994l-4.496 5.17c-3.407 3.919-5.085 8.192-4.976 12.237.106 3.96 1.938 8.303 6.725 12.464 4.378 3.805 8.951 5.085 13.084 4.684 4.183-.406 8.313-2.576 11.628-6.389l4.496-5.171c5.137-5.909 14.09-6.52 19.996-1.388z" fill="#F5F5F5"/><path d="M31.938 51.625h49v30.563a4 4 0 01-4 4h-41a4 4 0 01-4-4V51.624z" fill="#fff"/><path fill="#30CEBB" d="M52.938 51.625h7v35h-7z"/><path fill-rule="evenodd" clip-rule="evenodd" d="M80.938 50.313c.724 0 1.312.587 1.312 1.312v31.063a4.812 4.812 0 01-4.813 4.812h-42a4.812 4.812 0 01-4.812-4.813V71.75a1.312 1.312 0 112.625 0v10.938c0 1.208.98 2.187 2.188 2.187h42c1.208 0 2.187-.98 2.187-2.188V51.626c0-.725.588-1.313 1.313-1.313z" fill="#C9C9C9"/><path d="M27.563 41.625a4 4 0 014-4h48.874a4 4 0 014 4v10H27.563v-10z" fill="#30CEBB"/><path fill-rule="evenodd" clip-rule="evenodd" d="M84.438 43.313c.724 0 1.312.587 1.312 1.312v7c0 .725-.588 1.313-1.313 1.313H27.563a1.312 1.312 0 110-2.626h55.562v-5.687c0-.725.588-1.313 1.313-1.313zM52.063 86.188c0-.725.587-1.313 1.312-1.313H59.5a1.312 1.312 0 110 2.625h-6.125a1.312 1.312 0 01-1.313-1.313z" fill="#087C79"/><path fill-rule="evenodd" clip-rule="evenodd" d="M56.438 24.5a8.69 8.69 0 00-8.383 6.386 8.447 8.447 0 00-2.117-.27c-3.868 0-7 3.129-7 6.992h8.802v.017h5.197v14h7v-14h5.19v-.017h8.81a6.994 6.994 0 00-7-6.992c-.72 0-1.431.092-2.117.27a8.697 8.697 0 00-8.382-6.386z" fill="#087C79"/><path fill-rule="evenodd" clip-rule="evenodd" d="M52.063 51.625c0-.725.587-1.313 1.312-1.313H59.5a1.312 1.312 0 110 2.626h-6.125a1.312 1.312 0 01-1.313-1.313z" fill="#005151"/></svg>
