<svg focusable="false" xmlns="http://www.w3.org/2000/svg" viewBox="0 0 24 24">
<path d="M3 21C2.45 21 1.97917 20.8042 1.5875 20.4125C1.19583 20.0208 1 19.55 1 19V6C1 5.45 1.19583 4.97917 1.5875 4.5875C1.97917 4.19583 2.45 4 3 4H21C21.55 4 22.0208 4.19583 22.4125 4.5875C22.8042 4.97917 23 5.45 23 6V19C23 19.55 22.8042 20.0208 22.4125 20.4125C22.0208 20.8042 21.55 21 21 21H3ZM3 19H21V6H3V19ZM8.5 17H15.5C15.6333 17 15.75 16.95 15.85 16.85C15.95 16.75 16 16.6333 16 16.5C16 16.3667 15.95 16.25 15.85 16.15C15.75 16.05 15.6333 16 15.5 16H8.5C8.36667 16 8.25 16.05 8.15 16.15C8.05 16.25 8 16.3667 8 16.5C8 16.6333 8.05 16.75 8.15 16.85C8.25 16.95 8.36667 17 8.5 17ZM6 10C6.28333 10 6.52083 9.90417 6.7125 9.7125C6.90417 9.52083 7 9.28333 7 9C7 8.71667 6.90417 8.47917 6.7125 8.2875C6.52083 8.09583 6.28333 8 6 8C5.71667 8 5.47917 8.09583 5.2875 8.2875C5.09583 8.47917 5 8.71667 5 9C5 9.28333 5.09583 9.52083 5.2875 9.7125C5.47917 9.90417 5.71667 10 6 10ZM10 10C10.2833 10 10.5208 9.90417 10.7125 9.7125C10.9042 9.52083 11 9.28333 11 9C11 8.71667 10.9042 8.47917 10.7125 8.2875C10.5208 8.09583 10.2833 8 10 8C9.71667 8 9.47917 8.09583 9.2875 8.2875C9.09583 8.47917 9 8.71667 9 9C9 9.28333 9.09583 9.52083 9.2875 9.7125C9.47917 9.90417 9.71667 10 10 10ZM14 10C14.2833 10 14.5208 9.90417 14.7125 9.7125C14.9042 9.52083 15 9.28333 15 9C15 8.71667 14.9042 8.47917 14.7125 8.2875C14.5208 8.09583 14.2833 8 14 8C13.7167 8 13.4792 8.09583 13.2875 8.2875C13.0958 8.47917 13 8.71667 13 9C13 9.28333 13.0958 9.52083 13.2875 9.7125C13.4792 9.90417 13.7167 10 14 10ZM18 10C18.2833 10 18.5208 9.90417 18.7125 9.7125C18.9042 9.52083 19 9.28333 19 9C19 8.71667 18.9042 8.47917 18.7125 8.2875C18.5208 8.09583 18.2833 8 18 8C17.7167 8 17.4792 8.09583 17.2875 8.2875C17.0958 8.47917 17 8.71667 17 9C17 9.28333 17.0958 9.52083 17.2875 9.7125C17.4792 9.90417 17.7167 10 18 10ZM6 14C6.28333 14 6.52083 13.9042 6.7125 13.7125C6.90417 13.5208 7 13.2833 7 13C7 12.7167 6.90417 12.4792 6.7125 12.2875C6.52083 12.0958 6.28333 12 6 12C5.71667 12 5.47917 12.0958 5.2875 12.2875C5.09583 12.4792 5 12.7167 5 13C5 13.2833 5.09583 13.5208 5.2875 13.7125C5.47917 13.9042 5.71667 14 6 14ZM10 14C10.2833 14 10.5208 13.9042 10.7125 13.7125C10.9042 13.5208 11 13.2833 11 13C11 12.7167 10.9042 12.4792 10.7125 12.2875C10.5208 12.0958 10.2833 12 10 12C9.71667 12 9.47917 12.0958 9.2875 12.2875C9.09583 12.4792 9 12.7167 9 13C9 13.2833 9.09583 13.5208 9.2875 13.7125C9.47917 13.9042 9.71667 14 10 14ZM14 14C14.2833 14 14.5208 13.9042 14.7125 13.7125C14.9042 13.5208 15 13.2833 15 13C15 12.7167 14.9042 12.4792 14.7125 12.2875C14.5208 12.0958 14.2833 12 14 12C13.7167 12 13.4792 12.0958 13.2875 12.2875C13.0958 12.4792 13 12.7167 13 13C13 13.2833 13.0958 13.5208 13.2875 13.7125C13.4792 13.9042 13.7167 14 14 14ZM18 14C18.2833 14 18.5208 13.9042 18.7125 13.7125C18.9042 13.5208 19 13.2833 19 13C19 12.7167 18.9042 12.4792 18.7125 12.2875C18.5208 12.0958 18.2833 12 18 12C17.7167 12 17.4792 12.0958 17.2875 12.2875C17.0958 12.4792 17 12.7167 17 13C17 13.2833 17.0958 13.5208 17.2875 13.7125C17.4792 13.9042 17.7167 14 18 14Z" fill="currentColor"/>
</svg>
