<svg xmlns="http://www.w3.org/2000/svg" width="112" height="112" viewBox="0 0 112 112">
  <g fill="none" fill-rule="evenodd" class="artboard">
    <g class="artboard__profile">
      <g class="artboard__profile__group">
        <rect width="112" height="112" fill="#FFF" class="artboard__profile__group__rectangle"/>
        <path fill="#E8E8E8" d="M16.899 5.758s.677.147 1.11.352l.094.044h.001c.382.179.645.302.645.66 0 .386-.354.572-.74.703-.386.13-1.11.351-1.11.351s-.227.66-.37 1.055c-.144.395-.333.703-.74.703-.408 0-.591-.362-.74-.703-.15-.34-.37-1.055-.37-1.055s-.745-.187-1.11-.351l-.042-.019c-.352-.157-.699-.312-.699-.685 0-.387.39-.581.74-.703s1.11-.352 1.11-.352.26-.697.37-1.055c.112-.357.333-.703.74-.703.408 0 .645.359.74.703.096.345.37 1.055.37 1.055zm-8.265 9.26c-.721-.34-1.85-.586-1.85-.586s-.457-1.183-.617-1.758c-.159-.574-.555-1.172-1.233-1.172s-1.048.577-1.234 1.172c-.185.596-.616 1.758-.616 1.758s-1.267.383-1.85.587C.65 15.222 0 15.546 0 16.19c0 .62.578.879 1.165 1.141l.068.03c.61.274 1.85.587 1.85.587s.369 1.19.617 1.758c.249.568.556 1.172 1.234 1.172.678 0 .994-.514 1.233-1.172.24-.657.617-1.758.617-1.758s1.207-.368 1.85-.586c.644-.218 1.234-.528 1.234-1.172 0-.596-.438-.8-1.074-1.098a33.168 33.168 0 0 1-.16-.074zm92.511 22.272c-1.09 0-1.973.84-1.973 1.875 0 1.036.883 1.876 1.973 1.876s1.974-.84 1.974-1.876c0-1.035-.883-1.875-1.974-1.875zm-4.934 1.875c0-2.589 2.21-4.688 4.934-4.688 2.725 0 4.934 2.099 4.934 4.688 0 2.59-2.21 4.69-4.934 4.69s-4.934-2.1-4.934-4.69zm9.868-11.252c0-1.554 1.326-2.814 2.96-2.814 1.636 0 2.961 1.26 2.961 2.814 0 1.553-1.325 2.813-2.96 2.813s-2.96-1.26-2.96-2.813zm-2.467-10.785c-1.09 0-1.973.84-1.973 1.876s.883 1.875 1.973 1.875 1.974-.84 1.974-1.875c0-1.036-.883-1.876-1.974-1.876zM19.5 97.604a1.025 1.025 0 0 1 1.395 0l1.958 1.86a.905.905 0 0 1 0 1.326l-1.958 1.86a1.023 1.023 0 0 1-1.395 0l-1.958-1.86a.905.905 0 0 1 0-1.326l1.958-1.86zm-7.451 6.673a.512.512 0 0 0-.698 0l-1.538 1.46a.452.452 0 0 0 0 .664l1.538 1.462a.512.512 0 0 0 .698 0l1.538-1.462a.452.452 0 0 0 0-.663l-1.538-1.461z" class="artboard__profile__group__shape"/>
        <path fill="#F5F5F5" d="M100.471 58.395c6.69 5.624 7.415 15.431 1.596 21.906l-4.914 5.466C78.37 106.67 45.5 108.861 23.872 90.677 2.243 72.49-.086 40.703 18.7 19.8l4.912-5.467c5.82-6.474 15.959-7.144 22.647-1.52 6.69 5.624 7.416 15.431 1.596 21.906l-5.092 5.666c-3.858 4.293-5.758 8.975-5.636 13.407.12 4.339 2.195 9.097 7.617 13.656 4.958 4.169 10.138 5.571 14.819 5.132 4.738-.445 9.415-2.823 13.169-7l5.092-5.666c5.819-6.474 15.958-7.144 22.647-1.52z" class="artboard__profile__group__path" opacity=".807"/>
      </g>
      <g class="artboard__profile__group" transform="translate(18 18)">
        <ellipse cx="38" cy="40.449" fill="#30CEBB" fill-rule="nonzero" class="artboard__profile__group__oval" rx="36.48" ry="35.089"/>
        <path fill="#087C79" d="M62.674 14.563a1.563 1.563 0 0 1 2.15-.004C71.725 21.176 76 30.334 76 40.45a35.24 35.24 0 0 1-2.554 13.2c-.303.752-1.183 1.126-1.966.835-.783-.292-1.172-1.139-.868-1.892A32.414 32.414 0 0 0 72.96 40.45c0-9.307-3.93-17.728-10.282-23.818a1.423 1.423 0 0 1-.004-2.068z" class="artboard__profile__group__path"/>
        <path fill="#087C79" fill-rule="nonzero" d="M3.547 53.006c5.168 13.272 18.52 22.717 34.194 22.717 15.674 0 29.026-9.457 34.194-22.717C63.483 44.106 51.299 38.5 37.74 38.5c-13.559 0-25.743 5.607-34.194 14.506z" class="artboard__profile__group__path"/>
        <path fill="#FFF" fill-rule="nonzero" d="M45.102 34.226v-5.473H30.898v5.473c0 2.634-1.823 4.958-4.45 5.634a45.838 45.838 0 0 0-6.688 2.29c3.728 5.977 10.487 9.996 18.24 9.996 7.753 0 14.512-4.008 18.24-9.996a45.36 45.36 0 0 0-6.688-2.29c-2.627-.676-4.45-3-4.45-5.634z" class="artboard__profile__group__path"/>
        <path fill="#FFF" fill-rule="nonzero" d="M50.16 10.417c0-2.01-5.448-7.98-12.16-7.98S25.84 7.895 25.84 14.62v4.874c0 6.725 5.448 12.183 12.16 12.183s12.16-5.458 12.16-12.183v-9.077z" class="artboard__profile__group__path"/>
        <path fill="#087C79" d="M49.236 4.386h-4.803l.024.012c-1.46 0-2.614 1.243-2.371 2.697.194 1.137 1.301 1.923 2.493 1.923 3.903 0 7.065 3.05 7.065 6.813v3.612c1.325 0 2.395-1.032 2.395-2.31V9.018c0-2.556-2.152-4.632-4.803-4.632zm-21 .792h4.79c1.46 0 2.615 1.243 2.372 2.697-.195 1.138-1.301 1.923-2.493 1.923h-3.003c-2.25 0-4.074 1.76-4.074 3.929v6.508c-1.325 0-2.396-1.032-2.396-2.31V9.81c0-2.556 2.153-4.632 4.804-4.632z" class="artboard__profile__group__shape"/>
        <path fill="#C9C9C9" d="M49.26 7.941c-.756-.349-1.664-.042-2.028.686-.363.728-.044 1.601.713 1.95.151.07.384.327.55.936a4.439 4.439 0 0 1 .145.977v7.852c0 4.783-3.751 8.893-8.916 9.902-.823.161-1.354.933-1.187 1.724.167.792.97 1.303 1.792 1.142a15.276 15.276 0 0 0 3.244-1.018v2.6c0 1.856 1.01 3.474 2.244 4.658 1.242 1.192 2.863 2.099 4.444 2.51.81.212 1.645-.25 1.864-1.028.22-.78-.26-1.583-1.07-1.794-1.047-.273-2.208-.91-3.091-1.758-.892-.856-1.35-1.774-1.35-2.587v-4.406c3.084-2.382 5.066-5.934 5.066-9.945V12.49h-1.52c1.52 0 1.52-.002 1.52-.002v-.055a6.87 6.87 0 0 0-.03-.485c-.03-.3-.09-.718-.214-1.173-.224-.826-.77-2.184-2.176-2.834z" class="artboard__profile__group__path"/>
        <path fill="#087C79" fill-rule="nonzero" d="M47.706 0H37.96c-4.593 0-8.834 2.04-11.629 5.609a2.224 2.224 0 0 0-.376 2.1c.23.722.814 1.282 1.555 1.527l2.637.851a33.291 33.291 0 0 0 10.267 1.61c5.37 0 9.745-4.199 9.745-9.353 0-1.294-1.094-2.332-2.43-2.332L47.706 0z" class="artboard__profile__group__path"/>
        <path fill="#005151" d="M49.189 40.108c.196-.785 1.016-1.269 1.832-1.08 10.551 2.435 19.14 9.753 22.161 13.14l.593.664-.329.816C67.944 67.31 54.151 77 38 77 17.013 77 0 60.636 0 40.45c0-.808.68-1.463 1.52-1.463s1.52.655 1.52 1.462c0 18.572 15.652 33.627 34.96 33.627 14.527 0 26.987-8.523 32.266-20.658-3.226-3.33-10.872-9.45-19.954-11.547-.816-.188-1.32-.978-1.123-1.763z" class="artboard__profile__group__path"/>
      </g>
    </g>
  </g>
</svg>
