<svg width="24" height="24" viewBox="0 0 24 24" fill="none" xmlns="http://www.w3.org/2000/svg">
<path fill-rule="evenodd" clip-rule="evenodd" d="M10.5 2C5.80558 2 2 5.80558 2 10.5C2 15.1944 5.80558 19 10.5 19C12.2975 19 13.9647 18.4421 15.3378 17.4899C15.3513 17.505 15.3654 17.5197 15.3799 17.5341L20.4791 22.5764C21.0575 23.1483 21.9891 23.1457 22.5642 22.5706C23.1439 21.9909 23.1413 21.0502 22.5584 20.4738L17.4398 15.4123L17.4385 15.4111C18.4219 14.0242 19 12.3296 19 10.5C19 5.80558 15.1944 2 10.5 2ZM4 10.5C4 6.91015 6.91015 4 10.5 4C14.0899 4 17 6.91015 17 10.5C17 14.0899 14.0899 17 10.5 17C6.91015 17 4 14.0899 4 10.5Z" fill="black"/>
</svg>