<svg xmlns="http://www.w3.org/2000/svg" width="112" height="112" viewBox="0 0 112 112">
  <g fill="none" fill-rule="evenodd" class="employee---time">
    <g class="employee---time__time">
      <g class="employee---time__time__group">
        <rect width="112" height="112" fill="#FFF" class="employee---time__time__group__rectangle"/>
        <path fill="#E8E8E8" d="M16.899 5.758s.677.147 1.11.352l.094.044h.001c.382.179.645.302.645.66 0 .386-.354.572-.74.703-.386.13-1.11.351-1.11.351s-.227.66-.37 1.055c-.144.395-.333.703-.74.703-.408 0-.591-.362-.74-.703-.15-.34-.37-1.055-.37-1.055s-.745-.187-1.11-.351l-.042-.019c-.352-.157-.699-.312-.699-.685 0-.387.39-.581.74-.703s1.11-.352 1.11-.352.26-.697.37-1.055c.112-.357.333-.703.74-.703.408 0 .645.359.74.703.096.345.37 1.055.37 1.055zm-8.265 9.26c-.721-.34-1.85-.586-1.85-.586s-.457-1.183-.617-1.758c-.159-.574-.555-1.172-1.233-1.172s-1.048.577-1.234 1.172c-.185.596-.616 1.758-.616 1.758s-1.267.383-1.85.587C.65 15.222 0 15.546 0 16.19c0 .62.578.879 1.165 1.141l.068.03c.61.274 1.85.587 1.85.587s.369 1.19.617 1.758c.249.568.556 1.172 1.234 1.172.678 0 .994-.514 1.233-1.172.24-.657.617-1.758.617-1.758s1.207-.368 1.85-.586c.644-.218 1.234-.528 1.234-1.172 0-.596-.438-.8-1.074-1.098a33.168 33.168 0 0 1-.16-.074zm92.511 22.272c-1.09 0-1.973.84-1.973 1.875 0 1.036.883 1.876 1.973 1.876s1.974-.84 1.974-1.876c0-1.035-.883-1.875-1.974-1.875zm-4.934 1.875c0-2.589 2.21-4.688 4.934-4.688 2.725 0 4.934 2.099 4.934 4.688 0 2.59-2.21 4.69-4.934 4.69s-4.934-2.1-4.934-4.69zm9.868-11.252c0-1.554 1.326-2.814 2.96-2.814 1.636 0 2.961 1.26 2.961 2.814 0 1.553-1.325 2.813-2.96 2.813s-2.96-1.26-2.96-2.813zm-2.467-10.785c-1.09 0-1.973.84-1.973 1.876s.883 1.875 1.973 1.875 1.974-.84 1.974-1.875c0-1.036-.883-1.876-1.974-1.876zM19.5 97.604a1.025 1.025 0 0 1 1.395 0l1.958 1.86a.905.905 0 0 1 0 1.326l-1.958 1.86a1.023 1.023 0 0 1-1.395 0l-1.958-1.86a.905.905 0 0 1 0-1.326l1.958-1.86zm-7.451 6.673a.512.512 0 0 0-.698 0l-1.538 1.46a.452.452 0 0 0 0 .664l1.538 1.462a.512.512 0 0 0 .698 0l1.538-1.462a.452.452 0 0 0 0-.663l-1.538-1.461z" class="employee---time__time__group__shape"/>
        <path fill="#F5F5F5" d="M100.471 58.395c6.69 5.624 7.415 15.431 1.596 21.906l-4.914 5.466C78.37 106.67 45.5 108.861 23.872 90.677 2.243 72.49-.086 40.703 18.7 19.8l4.912-5.467c5.82-6.474 15.959-7.144 22.647-1.52 6.69 5.624 7.416 15.431 1.596 21.906l-5.092 5.666c-3.858 4.293-5.758 8.975-5.636 13.407.12 4.339 2.195 9.097 7.617 13.656 4.958 4.169 10.138 5.571 14.819 5.132 4.738-.445 9.415-2.823 13.169-7l5.092-5.666c5.819-6.474 15.958-7.144 22.647-1.52z" class="employee---time__time__group__path" opacity=".807"/>
      </g>
      <g class="employee---time__time__group" transform="translate(18 18)">
        <circle cx="37.791" cy="37.791" r="37.791" fill="#30CEBB" fill-rule="nonzero" class="employee---time__time__group__oval"/>
        <circle cx="37.791" cy="37.791" r="28.343" fill="#FFF" fill-rule="nonzero" class="employee---time__time__group__oval"/>
        <path fill="#C9C9C9" d="M36.374 14.644a1.417 1.417 0 0 1 2.834 0v.945a1.417 1.417 0 0 1-2.834 0v-.945zm8.976 23.147a7.558 7.558 0 1 1-15.117 0 7.558 7.558 0 0 1 15.117 0zm-7.56 20.786c-.782 0-1.417.634-1.417 1.417v.944a1.417 1.417 0 0 0 2.834 0v-.944c0-.783-.634-1.417-1.417-1.417zm23.147-22.203a1.417 1.417 0 0 1 0 2.834h-.944a1.417 1.417 0 0 1 0-2.834h.944zm-43.932 1.417c0-.782-.634-1.417-1.417-1.417h-.945a1.417 1.417 0 0 0 0 2.834h.945c.783 0 1.417-.634 1.417-1.417zm41.54 10.347a1.417 1.417 0 0 1-1.417 2.454l-.818-.472a1.417 1.417 0 1 1 1.417-2.455l.818.473zM19.79 27.398a1.417 1.417 0 0 0-.519-1.935l-.818-.473a1.417 1.417 0 0 0-1.417 2.455l.818.472c.678.392 1.545.16 1.936-.518zm30.801 29.73a1.417 1.417 0 0 1-2.454 1.418l-.473-.818a1.417 1.417 0 1 1 2.455-1.417l.472.818zM27.4 19.792c.678-.392.91-1.258.519-1.936l-.473-.818a1.417 1.417 0 1 0-2.454 1.417l.472.818c.391.678 1.258.91 1.936.519zM17.037 48.138a1.417 1.417 0 0 0 1.417 2.454l.818-.472a1.417 1.417 0 1 0-1.417-2.455l-.818.473zm38.755-20.74a1.417 1.417 0 0 1 .518-1.935l.819-.473a1.417 1.417 0 0 1 1.417 2.455l-.818.472a1.417 1.417 0 0 1-1.936-.518zM24.99 57.129a1.417 1.417 0 0 0 2.455 1.418l.472-.818a1.417 1.417 0 1 0-2.454-1.417l-.473.818zm23.194-37.337a1.417 1.417 0 0 1-.519-1.936l.472-.818a1.417 1.417 0 1 1 2.455 1.417l-.472.818a1.417 1.417 0 0 1-1.936.519z" class="employee---time__time__group__shape"/>
        <path fill="#30CEBB" fill-rule="nonzero" d="M36.374 37.791a1.417 1.417 0 0 1 2.834 0v15.59a1.417 1.417 0 0 1-2.834 0V37.79z" class="employee---time__time__group__path"/>
        <path fill="#005151" d="M36.374 25.51a1.417 1.417 0 0 1 2.834 0v9.826a2.833 2.833 0 0 1 1.418 2.455v.02l11.355 6.556a1.417 1.417 0 0 1-1.417 2.455l-11.372-6.566a2.834 2.834 0 0 1-2.818-4.92V25.51z" class="employee---time__time__group__path"/>
        <path fill="#087C79" d="M10.067 63.512a1.417 1.417 0 0 1 2.004 0c14.205 14.205 37.236 14.205 51.44 0 14.206-14.205 14.206-37.236 0-51.441a1.417 1.417 0 0 1 2.005-2.004c15.312 15.312 15.312 40.137 0 55.449-15.312 15.312-40.137 15.312-55.45 0a1.417 1.417 0 0 1 0-2.004z" class="employee---time__time__group__path"/>
      </g>
    </g>
  </g>
</svg>
